<?xml version="1.0" encoding="UTF-8"?>
<svg version="1.1" xmlns="http://www.w3.org/2000/svg" width="433" height="433">
<path d="M0 0 C17.49 0 34.98 0 53 0 C53.03738281 8.188125 53.07476562 16.37625 53.11328125 24.8125 C53.14744738 30.6901075 53.1834479 36.56768158 53.22207737 42.44525909 C53.27175687 50.04096182 53.31724283 57.6366098 53.34643555 65.23242188 C53.37206871 71.89802601 53.41310525 78.56337869 53.46318626 85.22885132 C53.47976212 87.76106998 53.49133376 90.29332692 53.49761391 92.82559204 C53.13895302 117.36423941 53.13895302 117.36423941 60.6875 140.375 C61.03707764 141.03435547 61.38665527 141.69371094 61.74682617 142.37304688 C70.1338125 157.72944776 82.73277957 167.38345225 99.40234375 172.77734375 C101.60226418 173.32235116 103.75409544 173.69722447 106 174 C106.89976563 174.13277344 107.79953125 174.26554688 108.7265625 174.40234375 C125.80911111 176.40807835 142.67065982 171.3974662 156.4453125 161.1875 C169.72844366 150.02066431 177.22086381 134.1967552 178.73828125 117.06640625 C178.93231778 114.56530683 179.12363249 112.06399506 179.3125 109.5625 C182.03572953 77.9637223 195.03236436 51.15561774 218.53125 29.6875 C231.95402278 18.53090964 247.32458607 10.85079556 264 6 C265.6396875 5.51466797 265.6396875 5.51466797 267.3125 5.01953125 C295.94424951 -2.03899033 325.54730596 3.96717121 350.875 18.08984375 C356.21942134 21.35662129 361.13944159 25.05665441 366 29 C366.85335938 29.68707031 367.70671875 30.37414062 368.5859375 31.08203125 C387.22506388 46.92822859 402.84160309 72.89047647 405.23449707 97.40206909 C405.54948185 102.68501811 405.57057751 107.9612232 405.52148438 113.25195312 C405.50002352 115.99699189 405.52140428 118.73941466 405.546875 121.484375 C405.56412743 132.31865835 404.48095935 141.70932185 401 152 C400.7539502 152.76570312 400.50790039 153.53140625 400.25439453 154.3203125 C391.26885421 180.92791401 370.82784533 204.12599404 345.97705078 217.05224609 C337.3069074 221.27189611 328.32123422 224.52931141 319 227 C318.23300781 227.21398437 317.46601563 227.42796875 316.67578125 227.6484375 C289.40206966 234.21697537 261.13640822 228.17650857 237 215 C236.34 214.67 235.68 214.34 235 214 C234.67 248.32 234.34 282.64 234 318 C215.85 318 197.7 318 179 318 C179 283.02 179 248.04 179 212 C173.39 214.97 167.78 217.94 162 221 C131.48932399 232.50402538 98.73499663 233.21759415 68.6171875 219.94213867 C39.78192931 206.53571387 17.4255176 182.7114607 6 153 C2.77971387 143.45118517 -0.13013467 133.51816931 -0.12025452 123.38113403 C-0.12162918 122.28746017 -0.12300385 121.19378632 -0.12442017 120.06697083 C-0.12082489 118.88229721 -0.11722961 117.6976236 -0.11352539 116.47705078 C-0.11367142 115.21796402 -0.11381744 113.95887726 -0.1139679 112.66163635 C-0.11425399 109.22200431 -0.10838769 105.78240736 -0.10139394 102.34278345 C-0.09512906 98.74332515 -0.09455412 95.14386599 -0.09336853 91.54440308 C-0.09026445 84.73410465 -0.08206352 77.92382234 -0.07201904 71.11353099 C-0.06082922 63.357798 -0.05534023 55.60206422 -0.05032361 47.84632516 C-0.03988012 31.89753919 -0.02154613 15.94877542 0 0 Z M250 75 C249.35160156 75.63808594 248.70320312 76.27617187 248.03515625 76.93359375 C236.83189612 88.7252089 233.47947988 103.41248793 233.58032227 119.15771484 C234.00707491 134.54002077 240.32333419 147.78459867 250.84375 158.97265625 C262.8156029 170.22880055 277.70975853 175.80537346 294 176 C312.21541992 174.878412 326.20900132 167.6062165 338.7421875 154.6015625 C350.75682019 140.75771237 352.97880056 124.62966071 352 107 C350.05706268 91.22477497 340.67913688 78.25649211 328.75 68.25 C304.23558323 50.12133165 271.12353808 53.58256922 250 75 Z " fill="#B28CFE" transform="translate(14,115)"/>
<path d="M0 0 C0.66 0 1.32 0 2 0 C2.60920288 1.06806885 2.60920288 1.06806885 3.23071289 2.15771484 C12.47697609 18.36426952 21.761196 34.5480271 31.09716797 50.703125 C32.75541462 53.57622775 34.41072841 56.45097501 36.06401062 59.32693481 C37.08902072 61.10997818 38.11462285 62.89267977 39.14038086 64.67529297 C40.4248814 66.90803902 41.70831792 69.14139769 42.99047852 71.37548828 C45.92059335 76.46503986 48.88011864 81.49306701 52.14794922 86.37451172 C53 88 53 88 53 91 C44.75 91 36.5 91 28 91 C28.309375 94.774375 28.61875 98.54875 28.9375 102.4375 C29.29017662 113.10065646 29.29017662 113.10065646 26.73730469 116.85888672 C23.30325929 119.79924928 19.18929258 121.39848775 15.03515625 123.08251953 C11.78297015 124.54865621 9.0926922 126.60105131 6.3125 128.8125 C5.78390381 129.22846436 5.25530762 129.64442871 4.71069336 130.07299805 C-7.32700902 139.75529683 -16.45907802 151.18861703 -25 164 C-25.66 163.67 -26.32 163.34 -27 163 C-26.67 139.24 -26.34 115.48 -26 91 C-34.58 91 -43.16 91 -52 91 C-50.60210955 87.50527389 -49.28283805 84.55006512 -47.453125 81.32421875 C-46.94547607 80.42678955 -46.43782715 79.52936035 -45.91479492 78.60473633 C-45.3654126 77.64204834 -44.81603027 76.67936035 -44.25 75.6875 C-43.67290283 74.67131592 -43.09580566 73.65513184 -42.5012207 72.6081543 C-37.88010321 64.49236735 -33.1828424 56.42197767 -28.4597168 48.36523438 C-25.20818137 42.81148409 -21.98674535 37.24219366 -18.8046875 31.6484375 C-18.27374229 30.71565224 -18.27374229 30.71565224 -17.73207092 29.76402283 C-16.01488531 26.74572728 -14.30121768 23.72550613 -12.5925293 20.70239258 C-3.40654418 4.5304817 -3.40654418 4.5304817 0 0 Z " fill="#E021D8" transform="translate(220,0)"/>
</svg>
